# xmcd
#
# Track frame offsets: 
#        182
#        15482
#        27932
#        42857
#        53732
#        67157
#        81857
#        92957
#        107882
#        119432
#        132407
#        144782
#
# Disc length: 2131 seconds
#
# Revision: 2
# Processed by: cddbd v1.4PL0 Copyright (c) Steve Scherf et al.
# Submitted via: ExactAudioCopy v0.90b2
#
DISCID=a208510c
DTITLE=The Statler Brothers - Sing The Classics - Disc 2
DYEAR=1900
DGENRE=Country
TTITLE0=Unchained Melody
TTITLE1=The Battle Of New Orleans
TTITLE2=I Can't Stop Loving You
TTITLE3=Bye, Bye Love
TTITLE4=Only You
TTITLE5=Have I Told You Lately That I Love You
TTITLE6=Oh Baby Mine (I Get So Lonely)
TTITLE7=It Only Hurts For A Little While
TTITLE8=He's Got The Whole World In His Hands
TTITLE9=Bed Of Roses
TTITLE10=Love Me Tender
TTITLE11=Goodnight, Sweetheart, Goodnight
EXTD=
EXTT0=
EXTT1=
EXTT2=
EXTT3=
EXTT4=
EXTT5=
EXTT6=
EXTT7=
EXTT8=
EXTT9=
EXTT10=
EXTT11=
PLAYORDER=
